<svg width="64" height="64" fill="none" xmlns="http://www.w3.org/2000/svg">
  <style>
    .primary { fill: #ffffff; }
    .secondary { fill: #96ADCB; }

    @media (prefers-color-scheme: light) {
    .primary { fill: #181818; }
    .secondary { fill: #273240; }
    }
  </style>
  <path class="primary"
    d="M42.625 20.856v4.758l11.999 5.544c.551.249 1.09.456 1.613.621.552.193.98.317 1.283.372-.303.056-.731.152-1.283.29-.551.166-1.09.372-1.613.62l-12 5.587v4.84l18.537-8.73v-5.172l-18.536-8.73Z" />
  <path class="secondary" d="M35.585 16.696 23.77 48.518h4.401l11.815-31.822h-4.4Z" />
  <path class="primary"
    d="m21.32 20.856-18.537 8.73v5.172l18.536 8.73V38.73L9.32 33.186a20.673 20.673 0 0 0-1.655-.662 10.833 10.833 0 0 0-1.241-.331c.303-.055.73-.166 1.282-.331.552-.166 1.09-.372 1.614-.62l12-5.545v-4.841Z" />
</svg>